<svg xmlns="http://www.w3.org/2000/svg" xmlns:xlink="http://www.w3.org/1999/xlink" version="1.1" width="256" height="256" viewBox="0 0 256 256" xml:space="preserve">
<g style="stroke: none; stroke-width: 0; stroke-dasharray: none; stroke-linecap: butt; stroke-linejoin: miter; stroke-miterlimit: 10; fill: none; fill-rule: nonzero; opacity: 1;" transform="translate(1.4065934065934016 1.4065934065934016) scale(2.81 2.81)">
	<path d="M 10.556 59.432 h 52.486 c 5.83 0 10.556 4.726 10.556 10.556 l 0 0 c 0 5.83 -4.726 10.556 -10.556 10.556 H 10.556 C 4.726 80.544 0 75.818 0 69.988 l 0 0 C 0 64.158 4.726 59.432 10.556 59.432 z" style="stroke: none; stroke-width: 1; stroke-dasharray: none; stroke-linecap: butt; stroke-linejoin: miter; stroke-miterlimit: 10; fill: rgb(234,67,53); fill-rule: nonzero; opacity: 1;" transform=" matrix(1 0 0 1 0 0) " stroke-linecap="round"/>
	<path d="M 56.916 78.574 L 14.454 47.723 c -4.717 -3.427 -5.762 -10.029 -2.335 -14.745 l 0 0 c 3.427 -4.717 10.029 -5.762 14.745 -2.335 l 42.462 30.851 c 4.717 3.427 5.762 10.029 2.335 14.745 l 0 0 C 68.235 80.955 61.633 82 56.916 78.574 z" style="stroke: none; stroke-width: 1; stroke-dasharray: none; stroke-linecap: butt; stroke-linejoin: miter; stroke-miterlimit: 10; fill: rgb(251,188,4); fill-rule: nonzero; opacity: 1;" transform=" matrix(1 0 0 1 0 0) " stroke-linecap="round"/>
	<path d="M 57.08 16.707 l 16.219 49.917 c 1.802 5.545 -1.233 11.5 -6.778 13.302 l 0 0 c -5.545 1.802 -11.5 -1.233 -13.302 -6.778 L 37 23.231 c -1.802 -5.545 1.233 -11.5 6.778 -13.302 l 0 0 C 49.323 8.128 55.278 11.162 57.08 16.707 z" style="stroke: none; stroke-width: 1; stroke-dasharray: none; stroke-linecap: butt; stroke-linejoin: miter; stroke-miterlimit: 10; fill: rgb(52,168,83); fill-rule: nonzero; opacity: 1;" transform=" matrix(1 0 0 1 0 0) " stroke-linecap="round"/>
	<path d="M 53.182 66.624 l 16.219 -49.917 c 1.802 -5.545 7.757 -8.579 13.302 -6.778 l 0 0 c 5.545 1.802 8.579 7.757 6.778 13.302 L 73.261 73.148 c -1.802 5.545 -7.757 8.579 -13.302 6.778 l 0 0 C 54.415 78.124 51.38 72.169 53.182 66.624 z" style="stroke: none; stroke-width: 1; stroke-dasharray: none; stroke-linecap: butt; stroke-linejoin: miter; stroke-miterlimit: 10; fill: rgb(66,133,244); fill-rule: nonzero; opacity: 1;" transform=" matrix(1 0 0 1 0 0) " stroke-linecap="round"/>
	<circle cx="47.018" cy="20.038" r="5.268" style="stroke: none; stroke-width: 1; stroke-dasharray: none; stroke-linecap: butt; stroke-linejoin: miter; stroke-miterlimit: 10; fill: rgb(255,255,255); fill-rule: nonzero; opacity: 1;" transform="  matrix(1 0 0 1 0 0) "/>
	<circle cx="20.498" cy="39.018" r="5.268" style="stroke: none; stroke-width: 1; stroke-dasharray: none; stroke-linecap: butt; stroke-linejoin: miter; stroke-miterlimit: 10; fill: rgb(255,255,255); fill-rule: nonzero; opacity: 1;" transform="  matrix(1 0 0 1 0 0) "/>
	<circle cx="10.617999999999999" cy="70.028" r="5.268" style="stroke: none; stroke-width: 1; stroke-dasharray: none; stroke-linecap: butt; stroke-linejoin: miter; stroke-miterlimit: 10; fill: rgb(255,255,255); fill-rule: nonzero; opacity: 1;" transform="  matrix(1 0 0 1 0 0) "/>
	<circle cx="63.278" cy="69.838" r="5.268" style="stroke: none; stroke-width: 1; stroke-dasharray: none; stroke-linecap: butt; stroke-linejoin: miter; stroke-miterlimit: 10; fill: rgb(255,255,255); fill-rule: nonzero; opacity: 1;" transform="  matrix(1 0 0 1 0 0) "/>
	<circle cx="79.548" cy="19.768" r="5.268" style="stroke: none; stroke-width: 1; stroke-dasharray: none; stroke-linecap: butt; stroke-linejoin: miter; stroke-miterlimit: 10; fill: rgb(255,255,255); fill-rule: nonzero; opacity: 1;" transform="  matrix(1 0 0 1 0 0) "/>
</g>
</svg>